<svg xmlns="http://www.w3.org/2000/svg" viewBox="0 0 1920 360" role="img" aria-labelledby="title desc">
  <title id="title">Global Harmony menu banner</title>
  <desc id="desc">A wide food banner with global dishes, spices, drinks, and the text Global Harmony: Explore Our Diverse Menu.</desc>
  <defs>
    <linearGradient id="table" x1="0" y1="0" x2="1920" y2="360" gradientUnits="userSpaceOnUse">
      <stop offset="0" stop-color="#2a1a11"/>
      <stop offset=".22" stop-color="#805f3d"/>
      <stop offset=".5" stop-color="#c94f38"/>
      <stop offset=".74" stop-color="#62513f"/>
      <stop offset="1" stop-color="#15100c"/>
    </linearGradient>
    <radialGradient id="light" cx="50%" cy="5%" r="75%">
      <stop offset="0" stop-color="#fff" stop-opacity=".9"/>
      <stop offset=".45" stop-color="#fff" stop-opacity=".34"/>
      <stop offset="1" stop-color="#fff" stop-opacity="0"/>
    </radialGradient>
    <filter id="shadow" x="-20%" y="-20%" width="140%" height="140%">
      <feDropShadow dx="0" dy="8" stdDeviation="7" flood-color="#120c08" flood-opacity=".38"/>
    </filter>
  </defs>
  <rect width="1920" height="360" fill="url(#table)"/>
  <path d="M0 0h1920v122c-236 34-408-34-635-24-245 11-454 84-708 42C332 99 186 28 0 62Z" fill="#f5f3ea" opacity=".9"/>
  <rect y="0" width="1920" height="360" fill="url(#light)"/>
  <text x="960" y="54" text-anchor="middle" font-family="Georgia, 'Times New Roman', serif" font-size="39" letter-spacing="3" fill="#171717">GLOBAL HARMONY: EXPLORE OUR DIVERSE MENU</text>
  <text x="644" y="53" text-anchor="middle" font-family="Arial, sans-serif" font-size="34" fill="#111"> chef </text>
  <text x="1544" y="53" text-anchor="middle" font-family="Arial, sans-serif" font-size="34" fill="#111"> globe </text>

  <g filter="url(#shadow)">
    <g transform="translate(26 176)">
      <ellipse cx="145" cy="78" rx="140" ry="58" fill="#d99553"/>
      <ellipse cx="145" cy="70" rx="125" ry="45" fill="#f5e0bd"/>
      <ellipse cx="145" cy="64" rx="104" ry="31" fill="#d9472e"/>
      <circle cx="98" cy="58" r="18" fill="#fff1cf"/>
      <circle cx="135" cy="48" r="18" fill="#fff1cf"/>
      <circle cx="178" cy="58" r="18" fill="#fff1cf"/>
      <path d="M75 63c55-28 97-23 144 6" fill="none" stroke="#2e9b52" stroke-width="7"/>
      <text x="145" y="147" text-anchor="middle" font-family="Arial, sans-serif" font-size="17" font-weight="700" fill="#fff">Pizza</text>
    </g>

    <g transform="translate(314 184)">
      <ellipse cx="150" cy="77" rx="145" ry="60" fill="#f1e8ce"/>
      <path d="M68 76c20-42 120-53 172-14 30 22 14 57-41 70-78 18-149-12-131-56Z" fill="#f3d46d"/>
      <path d="M86 66c51 31 106 32 158 3M78 90c69 30 128 27 180-8" stroke="#dfb746" stroke-width="6" fill="none"/>
      <circle cx="142" cy="50" r="12" fill="#6f2e1f"/>
      <path d="M127 43c34-21 68-12 92 19" stroke="#2fa456" stroke-width="7" fill="none"/>
      <text x="150" y="147" text-anchor="middle" font-family="Arial, sans-serif" font-size="17" font-weight="700" fill="#fff">Pasta</text>
    </g>

    <g transform="translate(592 92)">
      <ellipse cx="160" cy="156" rx="156" ry="58" fill="#7d451f"/>
      <path d="M50 120c10-70 71-109 133-92 51 14 82 50 90 92Z" fill="#bf672a"/>
      <ellipse cx="162" cy="119" rx="112" ry="36" fill="#b74e25"/>
      <circle cx="130" cy="107" r="17" fill="#f0b15d"/>
      <circle cx="171" cy="115" r="19" fill="#f0b15d"/>
      <circle cx="214" cy="104" r="16" fill="#f0b15d"/>
      <path d="M106 124c42-34 92-38 146-11" stroke="#66b65d" stroke-width="7" fill="none"/>
      <path d="M81 26c-20-35 33-42 18-82M151 28c-15-45 44-42 26-91M222 35c-14-32 33-37 20-70" stroke="#f4f0df" stroke-width="7" fill="none" opacity=".7"/>
      <text x="160" y="237" text-anchor="middle" font-family="Arial, sans-serif" font-size="17" font-weight="700" fill="#fff">Curry</text>
    </g>

    <g transform="translate(850 145)">
      <rect x="0" y="0" width="260" height="142" rx="18" fill="#f8d982"/>
      <path d="M0 34h260M0 70h260M0 106h260M45 0v142M94 0v142M143 0v142M196 0v142" stroke="#d54b37" stroke-width="7" opacity=".65"/>
      <ellipse cx="133" cy="75" rx="88" ry="43" fill="#fff9db"/>
      <path d="M82 78c26-22 68-28 112-3M96 92c34 13 66 12 102-4" stroke="#b67b33" stroke-width="8" fill="none"/>
      <circle cx="81" cy="68" r="16" fill="#f86e3f"/>
      <circle cx="202" cy="70" r="17" fill="#f86e3f"/>
      <text x="130" y="178" text-anchor="middle" font-family="Arial, sans-serif" font-size="17" font-weight="700" fill="#fff">Naan</text>
    </g>

    <g transform="translate(1150 132)">
      <ellipse cx="120" cy="120" rx="118" ry="54" fill="#d8923f"/>
      <path d="M31 115c31-73 139-91 179-8-61-20-120-20-179 8Z" fill="#f4cb64"/>
      <path d="M42 121c55 21 112 21 170-1" stroke="#6a3019" stroke-width="9" fill="none"/>
      <circle cx="83" cy="97" r="13" fill="#ce392d"/>
      <circle cx="132" cy="88" r="13" fill="#5fb557"/>
      <circle cx="166" cy="100" r="13" fill="#ce392d"/>
      <text x="120" y="197" text-anchor="middle" font-family="Arial, sans-serif" font-size="17" font-weight="700" fill="#fff">Tacos</text>
    </g>

    <g transform="translate(1412 148)">
      <rect x="0" y="0" width="228" height="126" rx="16" fill="#272727"/>
      <ellipse cx="68" cy="64" rx="44" ry="18" fill="#f78d48"/>
      <ellipse cx="128" cy="62" rx="45" ry="18" fill="#f3d6c7"/>
      <ellipse cx="176" cy="66" rx="38" ry="17" fill="#ffad5a"/>
      <circle cx="48" cy="57" r="13" fill="#fff"/>
      <circle cx="106" cy="57" r="13" fill="#fff"/>
      <circle cx="157" cy="60" r="13" fill="#fff"/>
      <path d="M18 101c58 16 124 16 194 0" stroke="#d7d7d7" stroke-width="5" fill="none"/>
      <text x="114" y="163" text-anchor="middle" font-family="Arial, sans-serif" font-size="17" font-weight="700" fill="#fff">Sushi</text>
    </g>

    <g transform="translate(1652 166)">
      <ellipse cx="112" cy="91" rx="108" ry="60" fill="#2a231e"/>
      <ellipse cx="112" cy="82" rx="86" ry="42" fill="#c17a34"/>
      <path d="M46 77c55 11 99 11 134 0M63 95c44 11 80 10 116-1" stroke="#f3c986" stroke-width="7" fill="none"/>
      <circle cx="82" cy="58" r="22" fill="#f7efcc"/>
      <circle cx="82" cy="58" r="10" fill="#f2a234"/>
      <text x="112" y="175" text-anchor="middle" font-family="Arial, sans-serif" font-size="17" font-weight="700" fill="#fff">Ramen</text>
    </g>
  </g>

  <g opacity=".92">
    <circle cx="530" cy="90" r="22" fill="#5fbf58"/>
    <path d="M510 82c24-39 56-34 39 9-14 22-28 23-39-9Z" fill="#68c861"/>
    <circle cx="1322" cy="84" r="27" fill="#7bbf37"/>
    <path d="M1296 87c34-21 59-13 75 21" stroke="#f6e9b1" stroke-width="8" fill="none"/>
    <circle cx="1265" cy="278" r="13" fill="#61b05a"/>
    <circle cx="1394" cy="96" r="14" fill="#d9382a"/>
    <circle cx="1452" cy="104" r="15" fill="#efc447"/>
    <path d="M1115 74c42 14 88 7 134-23" stroke="#43aa8b" stroke-width="13" stroke-linecap="round" fill="none"/>
  </g>
</svg>
